<?xml version="1.0" standalone="no"?>
<!DOCTYPE svg PUBLIC "-//W3C//DTD SVG 20010904//EN"
 "http://www.w3.org/TR/2001/REC-SVG-20010904/DTD/svg10.dtd">
<svg version="1.0" xmlns="http://www.w3.org/2000/svg"
 width="512.000000pt" height="512.000000pt" viewBox="0 0 512.000000 512.000000"
 preserveAspectRatio="xMidYMid meet">
<metadata>
Created by potrace 1.14, written by Peter Selinger 2001-2017
</metadata>
<g transform="translate(0.000000,512.000000) scale(0.100000,-0.100000)"
fill="#000000" stroke="none">
<path d="M3565 4565 c-130 -32 -238 -117 -294 -229 -37 -76 -41 -89 -48 -176
-16 -208 146 -472 401 -652 224 -158 348 -161 566 -15 114 76 238 201 311 312
137 207 149 414 33 582 -79 115 -200 181 -341 187 -82 4 -149 -11 -222 -48
l-55 -27 -45 24 c-25 14 -63 30 -83 36 -53 17 -165 20 -223 6z"/>
<path d="M1937 4294 c-99 -19 -149 -61 -132 -113 4 -13 -7 -39 -33 -78 -21
-32 -44 -72 -51 -88 -10 -26 -17 -31 -47 -31 -21 0 -41 -7 -53 -19 -32 -34
-126 -286 -152 -405 -9 -43 -14 -47 -87 -90 -222 -129 -440 -349 -556 -561
-36 -65 -37 -66 -94 -79 -111 -24 -288 -92 -438 -165 -131 -65 -159 -82 -202
-130 -86 -97 -113 -233 -70 -358 39 -112 252 -323 394 -391 103 -49 169 -63
316 -66 3 0 16 -20 28 -45 41 -85 123 -200 194 -274 136 -140 277 -222 456
-262 57 -13 233 -16 285 -5 108 23 107 23 160 -39 104 -123 308 -280 470 -363
178 -92 420 -161 623 -180 142 -12 420 -6 522 12 14 3 41 7 60 10 295 44 566
175 709 342 63 74 92 123 121 202 25 72 28 90 29 179 l1 72 72 38 c137 72 321
226 335 281 3 13 0 35 -6 49 -10 21 -8 31 11 61 12 21 26 39 30 40 4 2 8 8 8
13 0 5 11 28 25 50 19 30 31 39 44 34 33 -10 69 15 89 64 49 113 94 285 110
415 4 33 6 149 6 256 -1 178 -3 200 -24 254 -28 72 -105 155 -175 187 -76 35
-200 33 -278 -3 -73 -34 -131 -92 -165 -166 -26 -55 -26 -63 -25 -227 1 -186
-12 -302 -48 -405 -22 -64 -81 -174 -99 -185 -5 -3 -27 14 -49 37 -40 43 -41
43 -41 125 -1 512 -512 842 -979 632 -35 -16 -65 -28 -67 -26 -2 1 -5 17 -9
35 -13 78 -78 210 -148 302 -94 124 -261 261 -383 315 l-41 18 -6 91 c-11 190
-110 360 -312 536 -107 93 -209 126 -328 104z"/>
</g>
</svg>
